<svg width="64" height="64" viewBox="0 0 64 64" fill="none" xmlns="http://www.w3.org/2000/svg">
  <circle cx="32" cy="32" r="30" fill="#FFF4E1" stroke="#FF8237" stroke-width="3" />
  <circle cx="22" cy="22" r="6" fill="#FF8237" />
  <circle cx="32" cy="18" r="6" fill="#FF8237" />
  <circle cx="42" cy="22" r="6" fill="#FF8237" />
  <circle cx="48" cy="32" r="5" fill="#FF8237" />
  <path
    d="M32 28c-9.5 0-17 7.2-17 16.5 0 2 .4 4 1.2 5.6 3.8 2.3 9.7 3.1 15.8 3.1s12-.8 15.8-3.1c.8-1.6 1.2-3.6 1.2-5.6C49 35.2 41.5 28 32 28zm0 11.5c2.7-4.2 7-1.4 7.9.8.9 2.2 0 5.5-3.1 7.7-3.1 2.2-4.8 3.8-4.8 3.8s-1.7-1.6-4.8-3.8c-3.1-2.2-4-5.5-3.1-7.7.9-2.2 5.2-5 7.9-.8z"
    fill="#FF8237"
  />
</svg>
